<svg height="43" viewBox="0 0 44 43" width="44" xmlns="http://www.w3.org/2000/svg"><g fill="none" fill-rule="evenodd"><circle cx="21.988" cy="21.644" fill="#4ab0e0" r="21.184"/><path d="m28.566 17.752c-.46.202-.955.339-1.474.401a2.56 2.56 0 0 0 1.128-1.407 5.17 5.17 0 0 1 -1.63.616 2.573 2.573 0 0 0 -1.874-.802c-1.417 0-2.566 1.139-2.566 2.542 0 .199.023.394.067.58a7.311 7.311 0 0 1 -5.29-2.658 2.532 2.532 0 0 0 .794 3.395 2.563 2.563 0 0 1 -1.162-.318v.032a2.55 2.55 0 0 0 2.058 2.493 2.567 2.567 0 0 1 -1.159.044 2.565 2.565 0 0 0 2.397 1.764 5.168 5.168 0 0 1 -3.187 1.088c-.209 0-.411-.012-.612-.034a7.314 7.314 0 0 0 3.934 1.14c4.72 0 7.302-3.873 7.302-7.23 0-.112-.002-.222-.007-.332a5.107 5.107 0 0 0 1.281-1.314" fill="#fff" fill-rule="nonzero"/></g></svg>