<svg height="42" viewBox="0 0 42 42" width="42" xmlns="http://www.w3.org/2000/svg"><g fill="none" fill-rule="evenodd"><circle cx="21" cy="21" fill="#fff" r="21"/><path d="m29.457 22.63c.697.687 1.432 1.333 2.057 2.089.276.336.537.683.737 1.073.283.554.027 1.164-.466 1.197l-3.059-.002c-.789.066-1.418-.254-1.948-.8-.423-.435-.816-.898-1.223-1.349a2.908 2.908 0 0 0 -.55-.494c-.418-.274-.78-.19-1.02.25-.242.447-.297.943-.321 1.441-.033.728-.25.919-.974.952-1.547.074-3.015-.162-4.378-.95-1.202-.695-2.134-1.675-2.946-2.785-1.58-2.161-2.789-4.536-3.876-6.977-.245-.55-.066-.846.535-.856a82.24 82.24 0 0 1 2.995-.002c.406.006.674.241.831.628.54 1.341 1.2 2.617 2.03 3.799.22.315.446.63.767.85.355.246.625.165.792-.234.105-.253.152-.526.176-.797.079-.932.09-1.863-.05-2.792-.085-.58-.408-.955-.981-1.065-.292-.056-.249-.166-.107-.334.246-.291.477-.472.938-.472h3.457c.545.108.666.355.74.908l.003 3.878c-.006.215.106.85.488.992.306.1.507-.146.69-.342.828-.887 1.42-1.936 1.947-3.021.234-.478.436-.974.63-1.469.145-.368.372-.548.782-.54l3.328.003c.099 0 .199.001.294.018.56.096.714.34.541.893-.273.867-.804 1.59-1.323 2.316-.555.775-1.148 1.524-1.698 2.304-.506.713-.466 1.072.162 1.69z" fill="#436eab"/></g></svg>