<svg height="43" viewBox="0 0 44 43" width="44" xmlns="http://www.w3.org/2000/svg"><g fill="none" fill-rule="evenodd" transform="translate(.937 .46)"><circle cx="21.184" cy="21.184" fill="#dd4b39" r="21.184"/><path d="m18.127 15.252c-3.46 0-6.264 2.846-6.264 6.355 0 3.51 2.805 6.355 6.264 6.355 3.46 0 6.264-2.845 6.264-6.355 0-.436-.047-.861-.128-1.27l-.035-.142h-6.101v2.118h4.176c-.332 2.004-2.107 3.53-4.176 3.53-2.307 0-4.176-1.895-4.176-4.236 0-2.34 1.869-4.237 4.176-4.237 1.044 0 1.996.392 2.728 1.035l1.497-1.486a6.186 6.186 0 0 0 -4.225-1.667zm9.744 2.825v2.118h-2.088v1.412h2.088v2.119h1.393v-2.119h2.088v-1.412h-2.088v-2.118h-1.394z" fill="#fff" fill-rule="nonzero"/></g></svg>