<svg height="43" viewBox="0 0 43 43" width="43" xmlns="http://www.w3.org/2000/svg"><g fill="none" fill-rule="evenodd" transform="translate(0 .46)"><circle cx="21.184" cy="21.184" fill="#0078b5" r="21.184"/><path d="m16.91 15.252c-.959 0-1.655.574-1.655 1.363 0 .792.713 1.391 1.655 1.391.959 0 1.655-.585 1.655-1.407-.044-.792-.727-1.347-1.655-1.347zm-1.382 3.309a.277.277 0 0 0 -.276.276v8.002c0 .152.124.276.276.276h2.764a.277.277 0 0 0 .276-.276v-8.002a.277.277 0 0 0 -.276-.276zm4.145 0a.277.277 0 0 0 -.276.276v8.002c0 .152.124.276.276.276h2.487a.276.276 0 0 0 .276-.276v-4.278c0-.653.503-1.186 1.144-1.235.033-.006.066-.006.1-.006a1.239 1.239 0 0 1 1.243 1.242v4.277c0 .152.124.276.276.276h2.487a.277.277 0 0 0 .276-.276v-4.691c0-1.785-.959-3.587-3.097-3.587-.973 0-1.708.375-2.153.687v-.411a.277.277 0 0 0 -.276-.276z" fill="#fff" fill-rule="nonzero"/></g></svg>