<?xml version="1.0" encoding="utf-8"?>
<!-- Generator: Adobe Illustrator 15.0.2, SVG Export Plug-In . SVG Version: 6.00 Build 0)  -->
<!DOCTYPE svg PUBLIC "-//W3C//DTD SVG 1.1//EN" "http://www.w3.org/Graphics/SVG/1.1/DTD/svg11.dtd">
<svg version="1.1" id="Layer_1" xmlns="http://www.w3.org/2000/svg" xmlns:xlink="http://www.w3.org/1999/xlink" x="0px" y="0px"
	 width="544.741px" height="148.819px" viewBox="0 0 544.741 148.819" enable-background="new 0 0 544.741 148.819"
	 xml:space="preserve">
<g>
	<path fill="#1F6DB6" d="M536.664,81.188c-0.785-26.52-16.346-42.995-40.609-42.995c-5.894,0-11.589,0.067-16.591,2.089
		c-1.118-0.477-5.896-0.46-13.018-0.494h-50.902c-5,0-5.959,0.249-7.917,1.407c-4.322-1.953-9.162-3.002-14.307-3.002
		c-6.836,0-13.158,1.731-18.667,4.825c-2.421-2.322-5.657-3.229-9.049-3.229h-13.045c-5.752,0-10.752,3.334-12.455,8.69
		c-0.512-1.605-1.334-3.112-2.442-4.432c-2.483-2.96-6.147-4.248-10.011-4.248h-30.565c-2.465,0-4.787,0.267-6.771,1.471
		c-4.467-2.001-9.487-3.077-14.843-3.077c-9.164,0-17.425,3.001-24.065,8.186c-6.365-5.312-14.573-8.186-23.758-8.186
		c-4.277,0-8.493,0.457-12.104,1.596c-0.151,0.101-63,0-63,0c-5.753,0-10.396,3.462-12.101,8.817
		c-0.511-1.604-1.333-3.113-2.442-4.432c-2.483-2.958-6.149-4.39-10.012-4.39h-13.046c-5.221,0-9.816,2.812-11.896,7.387
		c-7.054-5.554-16.044-8.846-25.96-8.846c-1.095,0-2.173,0.048-3.243,0.119l7.609-7.881c4.756-4.929,4.903-12.694,0.335-17.798
		C80.621,11.46,69.889,0,53.298,0C34.214,0,20.854,10.208,17.565,27.297c-0.285,1.467-1.234,6.942-2.14,12.211H15.05
		c-6.323,0-11.739,4.525-12.865,10.748l-1.977,10.94c-0.689,3.812,0.349,7.732,2.832,10.707c1.589,1.901,3.666,3.29,5.971,4.043
		l-5.788,29.759c-0.669,3.804,0.38,7.709,2.864,10.668c2.483,2.957,6.149,4.666,10.012,4.666h16.683
		c9.155,0,10.196-13.649,10.196-13.649c7.535,9.094,19.029,14.807,32.126,14.807c11.102,0,20.97-3.719,28.485-10.021
		c5.637,6.464,13.763,10.021,22.95,10.021c6.196,0,11.787-1.385,16.742-4.139c3.83,1.981,8.536,2.957,14.229,2.957h22.691
		c6.36,0,11.801-4.582,12.881-10.854l0.142-0.822c7.302,8.154,18.02,12.729,30.335,12.729c11.036,0,19.268-3.157,24.952-8.004
		c6.033,5.078,13.748,8.004,22.47,8.004c0.222,0,0.443-0.004,0.664-0.006c-0.603,4.645-0.778,12.541,4.483,18.864
		c5.886,7.076,14.627,7.894,20.69,7.894h6.328c6.371,0,11.813-4.59,12.888-10.871l1.709-10.014c0.418-2.447,0.116-4.931-0.81-7.177
		c2.914,0.854,6.02,1.31,9.26,1.31c6.194,0,11.789-1.387,16.748-4.143c3.827,1.979,8.534,2.951,14.228,2.951h6.328
		c3.22,0,6.2-1.174,8.5-3.145c4.925,2.787,10.623,4.334,16.841,4.334c5.898,0,11.239-1.342,15.994-4.01
		c3.504,1.728,8.121,2.819,14.188,2.819h22.062c6.364,0,11.806-4.581,12.884-10.853l2.45-14.229
		c5.803,15.83,20.93,26.271,40.156,26.271c12.947,0,23.497-3.873,32.256-11.84c2.63-2.392,4.172-5.75,4.271-9.306
		c0.083-2.978-0.854-5.875-2.625-8.229C534.327,90.31,536.806,85.996,536.664,81.188z"/>
</g>
<path fill="#E1EABE" d="M200.362,97.132l9.361-6.33c3.166,4.747,7.248,7.777,14.1,7.777c6.458,0,8.966-2.371,8.966-5.932
	c0-3.558-2.899-4.612-11.203-8.566c-7.648-3.82-13.184-8.169-13.184-16.606c0-10.544,8.437-16.207,19.245-16.207
	c8.435,0,14.628,3.423,18.452,8.297l-8.566,7.125c-2.237-2.901-4.873-5.277-10.014-5.277c-4.089,0-6.988,1.851-6.988,5.143
	s2.768,4.878,9.096,7.774c8.699,4.085,15.679,7.909,15.679,17.925c0,9.752-7.242,16.738-21.743,16.738
	C212.227,108.993,204.454,103.853,200.362,97.132z"/>
<path fill="#E1EABE" d="M284.957,121.646l3.959-22.808c-3.959,6.067-9.755,10.154-17.932,10.154
	c-13.305,0-22.929-10.679-22.929-26.624c0-19.106,12.521-31.102,27.417-31.102c9.091,0,16.737,4.61,19.897,13.177l1.716-11.992
	h13.048l-12.256,69.456c-0.394,2.636,0.26,3.826,2.507,3.826h4.476l-1.709,10.013h-6.328
	C286.544,135.747,282.981,132.319,284.957,121.646z M292.473,78.808c0.131-9.484-5.402-16.077-14.232-16.077
	c-10.152,0-16.606,7.907-16.606,19.37c0,9.362,5.271,15.56,13.838,15.56C285.352,97.659,292.473,89.749,292.473,78.808z"/>
<path fill="#E1EABE" d="M309.065,83.817l5.534-31.365h13.052l-5.403,30.708c-1.585,8.964,1.844,14.233,9.752,14.233
	c8.43,0,13.31-4.748,15.16-14.364l5.399-30.578h13.045l-7.25,41.513c-0.521,2.637,0.138,3.824,2.377,3.824h4.479l-1.711,10.016
	h-6.328c-10.152,0-12.124-4.084-11.993-8.832v-0.92c-4.75,7.249-10.548,10.939-18.981,10.939
	C314.074,108.993,306.43,99.237,309.065,83.817z"/>
<path fill="#E1EABE" d="M366.565,82.369c0-19.106,12.258-31.102,26.755-31.102c8.702,0,16.082,4.61,19.242,13.177l1.715-11.992
	h13.048l-7.25,41.513c-0.392,2.636,0.265,3.824,2.509,3.824h4.283l-1.709,10.017h-6.137c-10.281,0-11.995-3.56-11.995-8.699v-1.188
	c-4.477,7.118-10.014,11.073-18.186,11.073C376.187,108.993,366.565,98.579,366.565,82.369z M409.664,78.808
	c0-9.484-5.011-16.077-13.577-16.077c-9.75,0-15.942,7.907-15.942,19.37c0,9.362,5.007,15.56,13.309,15.56
	C402.815,97.659,409.664,89.749,409.664,78.808z"/>
<path fill="#E1EABE" d="M437.79,52.453h13.043l-2.501,11.335c4.875-8.96,10.542-12.391,17.135-12.391c3.561,0,7.7,1.414,9.809,2.599
	c0,0-3.312,2.297-5.43,5.024c-2.42,3.114-3.659,6.231-3.659,6.231s-2.159-1.499-4.608-1.499c-7.945,0-13.642,4.776-15.882,17.297
	l-4.609,26.755h-13.056L437.79,52.453z"/>
<path fill="#E1EABE" d="M496.711,98.187c7.112,0,11.857-2.638,15.286-5.801l8.038,8.174c-5.797,5.271-13.045,8.435-23.46,8.435
	c-18.45,0-29.655-11.992-29.655-28.075c0-17.393,12.785-29.65,29.134-29.65c18.445,0,27.017,12.521,27.542,30.309l-43.229,4.616
	C482.081,93.572,487.88,98.187,496.711,98.187z M509.624,74.196c-0.658-6.59-4.74-12.387-13.569-12.387
	c-8.967,0-14.767,5.666-15.951,15.556L509.624,74.196z"/>
<path fill="#FFFFFF" d="M46.771,81.315c0-17.532,13.445-29.917,30.317-29.917c15.951,0,28.336,11.855,28.336,27.941
	c0,17.527-13.314,29.785-30.316,29.785C59.163,109.125,46.771,97.129,46.771,81.315z M91.976,79.208
	c0-9.757-5.925-16.476-15.284-16.476c-9.89,0-16.476,7.908-16.476,18.846c0,9.624,6.062,16.345,15.29,16.345
	C85.521,97.923,91.976,90.015,91.976,79.208z"/>
<path fill="#FFFFFF" d="M109.407,83.949l5.536-31.369h13.046l-5.4,30.709c-1.586,8.966,1.838,14.233,9.75,14.233
	c8.436,0,13.314-4.742,15.152-14.366l5.407-30.577h13.05l-7.25,41.518c-0.529,2.635,0.132,3.824,2.37,3.824h4.485l-1.715,10.018
	h-6.326c-10.154,0-12.122-4.086-11.993-8.83v-0.924c-4.744,7.248-10.544,10.938-18.977,10.938
	C114.412,109.125,106.769,99.372,109.407,83.949z"/>
<path fill="#FFFFFF" d="M176.905,52.581h13.051l-2.506,11.334c4.879-8.961,10.546-12.387,17.132-12.387
	c3.562,0,4.644,0.211,6.882,1.152c0,0-2.169,0.938-4.79,5.553c-1.411,2.485-2.016,6.896-2.016,6.896s-1.125-1.345-3.632-1.345
	c-8.304,0-13.97,4.878-16.212,17.402l-4.611,26.754h-13.049L176.905,52.581z"/>
<path fill="#FFFFFF" d="M53.299,13.072c-19.692,0-22.357,13.899-22.898,16.708c-0.544,2.809-3.949,22.8-3.949,22.8h-11.4
	l-1.978,10.94h11.395l-7.815,44.519h12.946l7.793-44.519h9.084c0,0,2.526-4.033,4.847-6.301c3.008-2.945,6.362-4.64,6.362-4.64
	H39.36c0,0,2.867-16.207,3.301-18.406c0.402-2.025,1.521-8.221,8.011-9.132c7.952-1.116,13.1,5.016,13.1,5.016l8.277-8.574
	C72.047,21.484,64.522,13.072,53.299,13.072z"/>
<g>
	<path fill="#A8AAAD" d="M536.231,52.424c-4.514,0-8.532-3.121-8.532-8.487c0-5.365,4.02-8.487,8.532-8.487
		c4.49,0,8.51,3.122,8.51,8.487C544.74,49.303,540.721,52.424,536.231,52.424z M536.231,37.425c-3.367,0-6.082,2.604-6.082,6.512
		c0,3.907,2.715,6.533,6.082,6.511v0.022c3.278,0,6.061-2.626,6.061-6.533C542.291,40.03,539.509,37.425,536.231,37.425z
		 M534.815,48.495h-1.952v-9.138h3.413c2.355,0,3.749,0.673,3.749,2.761c0,1.685-0.988,2.291-2.2,2.38l2.335,3.997h-2.312
		l-2.11-3.838h-0.92v3.838H534.815z M536.544,43.106c0.876,0,1.393-0.18,1.393-1.19c0-0.942-1.011-1.01-1.752-1.01h-1.368v2.201
		L536.544,43.106L536.544,43.106z"/>
</g>
</svg>
