<svg xmlns="http://www.w3.org/2000/svg" width="100" height="100" viewBox="0 0 100 100">
    <g fill="none" fill-rule="nonzero">
        <path fill="#FC5155" d="M50 0C22.387 0 0 22.387 0 50c0 27.612 22.387 50 50 50 27.612 0 50-22.388 50-50 0-27.613-22.388-50-50-50z"/>
        <path fill="#FFF" d="M55.05 20.833l-.833 37.5h-8.434l-.833-37.5zM50.013 79.954c-3.45 0-5.513-1.837-5.513-4.925 0-3.146 2.058-4.983 5.513-4.983 3.425 0 5.483 1.837 5.483 4.983 0 3.088-2.059 4.925-5.483 4.925z"/>
    </g>
</svg>
