<?xml version="1.0" encoding="UTF-8" standalone="no"?>
<svg width="331px" height="462px" viewBox="0 0 331 462" version="1.1" xmlns="http://www.w3.org/2000/svg" xmlns:xlink="http://www.w3.org/1999/xlink" xmlns:sketch="http://www.bohemiancoding.com/sketch/ns">
    <!-- Generator: Sketch 3.4.2 (15855) - http://www.bohemiancoding.com/sketch -->
    <title>foursquare</title>
    <desc>Created with Sketch.</desc>
    <defs></defs>
    <g id="Page-1" stroke="none" stroke-width="1" fill="none" fill-rule="evenodd" sketch:type="MSPage">
        <g id="foursquare" sketch:type="MSLayerGroup" transform="translate(-83.000000, -16.000000)">
            <path d="M120.693223,91.2996837 L118.505661,397.394522 L183.356875,358.795112 L229.925889,297.734788 L313.631949,294.10698 L364.2731,87.4939848 L349.76005,72.2624407 L125.950037,75.6307029 L120.693223,91.2996837 Z" id="white-fill" sketch:type="MSShapeGroup"></path>
            <path d="M369.521786,16.6278658 L128.675101,16.6278658 C95.2646582,16.6278658 83.1393292,44.906805 83.1393292,63.9146245 L83.1393292,446.570978 C83.1393292,461.256999 88.6756856,470.953213 99.6067,475.396468 C102.339454,476.499691 106.074217,477.147455 109.849465,477.147455 C118.138818,477.147455 125.760164,474.131304 131.306642,468.635433 C165.061209,433.484125 246.304962,347.888209 254.675285,339.983466 L325.524453,339.983466 C346.657747,339.983466 364.633193,320.155821 368.155409,305.945502 C369.339602,301.208729 375.392145,267.008824 383.064098,223.709861 C393.053831,167.212711 405.503041,96.9202153 411.262067,68.9044302 C415.270105,49.3804239 414.045427,36.4858754 407.395726,28.3179785 C400.806754,20.2310521 389.116641,16.6278658 369.521786,16.6278658 Z M319.957732,148.204891 C313.409245,148.204891 237.24639,148.215013 236.467049,148.204891 C225.009727,148.204891 215.698122,157.850499 215.698122,170.471772 L215.698122,181.979702 C215.698122,194.459276 223.076556,208.406441 234.432666,208.406441 L315.403143,208.406441 C325.524453,208.406441 328.560845,216.290941 327.599321,221.088442 C326.658039,225.622789 323.10546,239.731894 320.241129,251.067761 C318.095411,259.55954 316.23309,266.907611 315.838359,268.790174 C315.200717,271.897416 306.020689,279.781917 299.715113,279.781917 L249.108565,279.781917 C235.647223,280.19689 228.643277,282.119939 219.878223,292.980104 C212.793306,301.765401 158.968181,355.104703 143.340879,369.213809 L143.340879,107.193345 C143.340879,86.9507253 153.462189,76.8294156 173.704808,76.8294156 L335.645762,76.8294156 C345.767072,76.8294156 355.888382,76.8294156 352.771018,88.2057676 L343.418928,133.782025 C340.65581,143.427633 332.973736,148.204891 319.957732,148.204891 L319.957732,148.204891 Z" id="Imported-Layers" fill="#000000" sketch:type="MSShapeGroup"></path>
        </g>
    </g>
</svg>